<svg width="250" height="61" viewBox="0 0 250 61" fill="none" xmlns="http://www.w3.org/2000/svg">
<path d="M72.5115 21.2039L79.7359 21.0205C80.0927 22.6708 81.6089 23.4043 84.2846 23.4043C85.4441 23.4043 86.336 23.2209 86.9603 22.8542C87.5847 22.4874 87.9414 21.9373 87.9414 21.2955C87.9414 20.3787 87.2279 19.8286 85.8009 19.4619L80.717 18.4533C78.2197 17.9032 76.3467 17.1697 75.2764 16.2529C74.117 15.3361 73.5818 13.9608 73.5818 12.2188C73.5818 10.9352 73.9386 9.83499 74.6521 8.82646C76.2575 6.53435 79.29 5.43414 83.9279 5.43414C86.6928 5.43414 88.9225 5.70919 90.4388 6.2593C92.1334 6.80941 93.2928 7.81793 94.0956 9.28488C94.4523 10.0184 94.7199 10.7518 94.8091 11.577L87.5847 12.0354C87.4063 11.4853 87.1387 11.0269 86.6928 10.6602C86.2468 10.3851 85.8009 10.2017 85.3549 10.11C84.9982 10.0184 84.463 10.0184 83.9279 10.0184C81.7873 10.0184 80.717 10.5685 80.717 11.6687C80.717 12.2188 80.9846 12.6772 81.6089 12.9523C82.2333 13.2273 83.3035 13.5024 84.9982 13.8691L87.5847 14.4192C88.209 14.6026 88.6549 14.6943 88.9225 14.6943C89.1901 14.7859 89.636 14.8776 90.2604 15.061C90.9739 15.2444 91.4199 15.4277 91.7766 15.6111C92.1334 15.7945 92.4901 15.9778 93.0253 16.3446C93.5604 16.7113 93.9172 16.9864 94.1847 17.3531C94.4523 17.7199 94.6307 18.1783 94.8983 18.7284C95.0767 19.2785 95.1658 19.8286 95.1658 20.4704C95.1658 21.9373 94.7199 23.3126 93.828 24.4128C92.0442 26.7049 88.5658 27.8968 83.3036 27.8968C76.6143 28.1719 73.0467 25.8798 72.5115 21.2039Z" fill="black"/>
<path d="M124.599 16.8947C124.599 20.8372 123.082 23.8627 120.05 25.9715C118.801 26.8883 117.374 27.4384 115.947 27.8052C114.431 28.1719 112.736 28.3553 110.774 28.3553C107.296 28.3553 104.352 27.7135 102.123 26.3382C101.052 25.6964 100.25 24.963 99.5362 24.1378C98.8227 23.3126 98.3768 22.3958 98.02 21.5706C97.7524 20.6538 97.4849 19.9203 97.3957 19.2785C97.3065 18.6367 97.2173 17.9949 97.2173 17.3532C97.2173 16.0696 97.3957 14.9694 97.6632 13.8691C97.9308 12.7689 98.2876 11.8521 98.8227 11.1186C99.2687 10.3851 99.8038 9.74335 100.25 9.28493C100.696 8.82651 101.231 8.36809 101.766 8.00135C103.996 6.44272 107.028 5.61755 110.863 5.61755C112.647 5.61755 114.163 5.70924 115.501 5.98429C116.839 6.25935 117.999 6.62608 118.89 7.08451C119.782 7.54293 120.585 8.09303 121.12 8.55145C121.745 9.10156 122.191 9.65167 122.726 10.3851C123.974 12.4022 124.599 14.5109 124.599 16.8947ZM117.017 16.9864C117.017 16.3446 116.928 15.6112 116.75 14.9694C116.572 14.3276 116.304 13.5941 115.858 12.8606C115.412 12.1271 114.788 11.577 113.985 11.1186C113.182 10.6602 112.112 10.3851 110.953 10.3851C108.99 10.3851 107.385 11.0269 106.404 12.3105C105.334 13.5941 104.798 15.1527 104.798 16.9864C104.798 17.7199 104.888 18.5451 105.155 19.2785C105.334 20.012 105.69 20.7455 106.136 21.3873C106.582 22.0291 107.207 22.5792 108.098 23.0376C108.901 23.4043 109.971 23.6794 111.042 23.6794C112.201 23.6794 113.272 23.496 114.163 22.9459C115.055 22.4875 115.68 21.8457 116.036 21.1122C116.393 20.3787 116.661 19.6453 116.839 19.0035C116.928 18.3617 117.017 17.6282 117.017 16.9864Z" fill="black"/>
<path d="M147.075 11.1187H139.761V27.5302H132.358V11.1187H125.045V6.44275H147.075V11.1187Z" fill="black"/>
<path d="M173.118 27.5302H165.002L160.721 19.8287H156.796V27.5302H149.393V6.44275H164.556C166.25 6.44275 167.677 6.62612 168.837 6.99285C169.996 7.35959 170.888 8.09307 171.691 9.37665C172.405 10.5685 172.761 11.7604 172.761 13.1357C172.761 13.5024 172.761 13.8692 172.672 14.1442C172.672 14.511 172.494 14.9694 172.315 15.5195C172.137 16.0696 171.869 16.528 171.602 16.9865C171.245 17.4449 170.799 17.8116 170.175 18.27C169.55 18.6368 168.837 19.0035 168.034 19.0952L173.118 27.5302ZM156.796 11.2103V15.0611H162.326C163.664 15.0611 164.556 14.786 164.913 14.3276C165.18 13.9609 165.359 13.5941 165.359 13.1357C165.359 12.6773 165.269 12.4022 165.002 12.0355C164.645 11.4854 163.931 11.2103 162.861 11.2103H156.796Z" fill="black"/>
<path d="M200.143 27.5302H192.116L191.045 24.0462H183.107L182.037 27.5302H173.921L182.84 6.35107H191.224L200.143 27.5302ZM189.44 19.4619L187.032 12.3106L184.713 19.4619H189.44Z" fill="black"/>
<path d="M224.848 27.5302H218.783L208.973 16.253V27.5302H201.748V6.44275H207.813L217.624 17.5366V6.44275H224.848V27.5302Z" fill="black"/>
<path d="M227.346 21.2039L234.57 21.0205C234.927 22.6708 236.443 23.4043 239.119 23.4043C240.278 23.4043 241.17 23.2209 241.795 22.8542C242.419 22.4874 242.776 21.9373 242.776 21.2955C242.776 20.3787 242.062 19.8286 240.635 19.4619L235.551 18.4533C233.054 17.9032 231.181 17.1697 230.111 16.2529C228.951 15.3361 228.416 13.9608 228.416 12.2188C228.416 10.9352 228.773 9.83499 229.486 8.82646C231.092 6.53435 234.124 5.43414 238.762 5.43414C241.527 5.43414 243.757 5.70919 245.273 6.2593C246.968 6.80941 248.127 7.81793 248.93 9.28488C249.287 10.0184 249.554 10.7518 249.643 11.577L242.419 12.0354C242.241 11.4853 241.973 11.0269 241.527 10.6602C241.081 10.3851 240.635 10.2017 240.189 10.11C239.832 10.0184 239.297 10.0184 238.762 10.0184C236.622 10.0184 235.551 10.5685 235.551 11.6687C235.551 12.2188 235.819 12.6772 236.443 12.9523C237.067 13.2273 238.138 13.5024 239.832 13.8691L242.419 14.4192C243.043 14.6026 243.489 14.6943 243.757 14.6943C244.024 14.7859 244.47 14.8776 245.095 15.061C245.808 15.2444 246.254 15.4277 246.611 15.6111C246.968 15.7945 247.324 15.9778 247.86 16.3446C248.395 16.7113 248.751 16.9864 249.019 17.3531C249.287 17.7199 249.465 18.1783 249.733 18.7284C249.911 19.2785 250 19.8286 250 20.4704C250 21.9373 249.554 23.3126 248.662 24.4128C246.878 26.7049 243.4 27.8968 238.138 27.8968C231.449 28.1719 227.881 25.8798 227.346 21.2039Z" fill="black"/>
<path d="M72.7792 38.899H85.2658V40.7327H79.9144V56.4107H78.1306V40.7327H72.7792V38.899Z" fill="black"/>
<path d="M94.0064 54.6687H104.085V56.4107H92.1334V38.899H103.817V40.7327H94.0064V46.4171H101.855V48.1591H94.0064V54.6687Z" fill="black"/>
<path d="M116.928 45.7753L121.655 38.899H123.885L117.999 47.3339L124.331 56.4107H122.191L116.928 48.8009L111.666 56.4107H109.526L115.858 47.3339L109.971 38.899H112.201L116.928 45.7753Z" fill="black"/>
<path d="M131.288 56.4107V38.899H133.072V54.6687H142.258V38.899H144.131V54.6687H146.272V60.1698H144.488V56.4107H131.288Z" fill="black"/>
<path d="M155.28 54.6687H165.359V56.4107H153.496V38.899H165.091V40.7327H155.28V46.4171H163.218V48.1591H155.28V54.6687Z" fill="black"/>
<path d="M172.85 56.4107V38.899H174.723V46.6922H184.178V38.899H185.961V56.4107H184.178V48.4342H174.723V56.4107H172.85Z" fill="black"/>
<path d="M192.918 38.899H205.405V40.7327H200.054V56.4107H198.27V40.7327H192.918V38.899Z" fill="black"/>
<path d="M212.362 38.899H218.783C220.389 38.899 221.638 39.4491 222.708 40.4576C223.778 41.4661 224.224 42.8414 224.224 44.4001C224.224 45.9587 223.689 47.2423 222.708 48.3425C221.638 49.4427 220.389 49.9011 218.783 49.9011H214.146V56.4107H212.362V38.899ZM218.783 40.7327H214.146V48.1591H218.783C219.854 48.1591 220.746 47.7924 221.459 47.1506C222.083 46.5088 222.44 45.5919 222.44 44.4001C222.44 43.2082 222.083 42.383 221.459 41.6495C220.746 41.0077 219.854 40.7327 218.783 40.7327Z" fill="black"/>
<path d="M238.227 56.4107H232.073V38.899H233.857V45.4086H238.227C239.832 45.4086 241.081 45.9587 242.151 46.9672C243.222 47.9757 243.668 49.351 243.668 50.9096C243.668 52.4683 243.132 53.7519 242.151 54.8521C241.081 55.8606 239.743 56.4107 238.227 56.4107ZM233.857 54.6687H238.227C239.297 54.6687 240.189 54.302 240.903 53.6602C241.527 53.0184 241.884 52.1015 241.884 50.9096C241.884 49.8094 241.527 48.8926 240.903 48.1591C240.278 47.5173 239.386 47.1506 238.227 47.1506H233.857V54.6687ZM248.395 56.4107H246.611V38.899H248.395V56.4107Z" fill="black"/>
<path d="M29.6111 5.25083C28.5409 7.35957 26.9354 8.73484 26.2219 8.3681C25.4192 8.00136 25.6868 5.98431 26.7571 3.87557C27.8273 1.76683 29.4328 0.39156 30.1463 0.758297C30.949 1.12503 30.6814 3.14209 29.6111 5.25083Z" fill="#070B0B"/>
<path d="M29.076 5.06747C28.1841 6.71779 27.0246 7.818 26.4003 7.63464C25.7759 7.35958 26.0435 5.80095 26.9354 4.15063C27.8273 2.59199 28.9868 1.4001 29.6111 1.58347C30.2354 1.85852 29.9679 3.41715 29.076 5.06747Z" fill="#EB5D2F"/>
<path d="M48.4303 52.1933C47.2708 52.2849 46.0221 52.1933 44.9518 51.9182C43.7032 51.4598 40.2248 50.6346 37.3707 42.4747C34.9625 35.5067 31.3057 35.2316 31.3057 35.2316C32.0193 33.1229 31.9301 30.7391 31.0382 28.6304C30.1463 26.705 28.5408 25.3297 28.0949 24.4129C27.6489 23.496 27.4706 22.3958 27.5598 21.2956C28.0057 17.0781 33.0004 9.92675 31.5733 7.08454C28.8976 1.67516 12.4866 8.36812 14.2704 12.9523C15.4299 16.1613 25.5084 13.1357 25.5084 13.1357C24.9732 15.5195 23.7246 17.6282 22.03 19.1869C20.5137 20.2871 18.9975 21.2956 17.2137 21.9374C14.2704 23.496 10.3461 25.1464 8.56226 29.3638C7.93793 30.9225 7.67035 32.6645 7.93792 34.3148C8.38387 37.3404 10.1677 40.0909 12.8434 41.8329C13.7353 42.383 14.7164 42.9331 15.6975 43.3916C16.5894 45.5003 18.3732 47.1506 20.6029 47.8841C20.6029 47.8841 21.6732 51.8265 13.2001 52.4683C10.1677 52.7434 5.4406 50.9097 5.4406 50.9097C1.873 52.1016 0 56.5024 0 56.5024H30.5922C30.5922 56.5024 33.6247 55.2188 29.6111 53.2018C28.4517 52.6517 24.5273 51.1847 24.4381 47.334C24.3489 46.2338 24.7057 45.1336 25.4192 44.2167C26.4003 43.2082 27.9165 42.8414 29.2544 43.3916C30.5922 43.9417 31.7517 44.7668 32.5544 45.7753C35.6761 49.6261 38.9761 56.4107 44.5951 56.044C49.8573 55.6773 48.5194 52.1016 48.4303 52.1933Z" fill="black"/>
<path d="M47.5384 51.3681C47.5384 51.3681 44.4167 52.7433 43.168 52.1932C41.9194 51.6431 39.9572 50.2679 37.1031 43.1165C34.4274 36.3318 30.7706 35.8734 30.7706 35.8734C31.1274 33.5813 30.949 31.1975 30.0571 28.9971C29.2544 27.1634 27.7381 25.6048 25.9543 24.7796L28.3625 25.6964C27.2922 24.5962 26.8462 23.1293 27.1138 21.754C27.5598 17.6282 32.376 10.1101 31.2166 7.63462C28.9868 2.59198 13.8245 9.46831 15.2515 12.7689C16.5894 15.7028 26.757 12.7689 26.757 12.7689C26.757 12.7689 26.0435 16.8947 23.3678 19.3702C22.2084 20.3787 20.9597 21.2039 19.6218 21.8457C16.7677 23.3127 12.0407 24.963 9.72173 29.3638C7.58116 33.3062 9.36497 38.0738 12.1299 40.3659C13.2001 41.1911 14.3596 41.9246 15.5191 42.6581C15.4299 42.2913 15.4299 41.9246 15.4299 41.5578V41.0077C15.4299 40.7327 15.5191 40.4576 15.5191 40.1826V40.2743C15.6083 39.7242 15.7867 39.0824 15.965 38.6239C15.6083 40.7327 16.1434 42.8414 17.3029 44.5834C18.284 45.9587 19.711 47.0589 21.1381 47.7007C21.1381 47.7007 21.4056 49.6261 20.3354 50.7263C19.2651 51.8265 17.4813 52.56 13.5569 53.0184C10.7028 53.2934 7.67036 52.9267 4.99465 52.0099C3.30004 52.56 2.14057 53.8436 1.51624 55.4939H30.503C30.503 55.4939 32.0193 55.0354 28.0949 53.0184C25.6868 51.9182 24.2597 49.6261 24.1705 47.2423C24.1705 44.6751 25.0624 43.3915 26.4895 42.6581C27.649 42.1079 28.8976 42.1079 29.9679 42.6581C35.4977 45.5003 36.9247 55.4939 45.3086 56.1357C51.106 56.5941 47.6276 51.4598 47.5384 51.3681Z" fill="#EB5C2C"/>
<path d="M38.4409 50.7263C38.3517 47.1506 41.295 44.125 45.1302 44.125C48.8762 44.125 51.9978 46.8755 51.9978 50.5429C52.087 54.1186 49.1438 57.1442 45.3086 57.1442H45.2194C41.3842 57.0525 38.4409 54.2103 38.4409 50.7263Z" fill="black"/>
<path d="M33.0896 5.70917C31.8409 8.00128 30.2355 9.46823 29.2544 9.10149C28.2733 8.64307 28.5409 6.44264 29.7004 4.15053C30.8598 1.85842 32.5545 0.391474 33.5355 0.758212C34.4275 1.30832 34.2491 3.50874 33.0896 5.70917Z" fill="#070B0B"/>
<path d="M24.9732 8.1848C24.9732 7.63469 25.5084 7.17627 26.0435 7.17627C26.6678 7.17627 27.1138 7.63469 27.1138 8.1848C27.1138 8.73491 26.6678 9.19333 26.0435 9.19333C25.4192 9.19333 24.9732 8.82659 24.9732 8.1848Z" fill="#070B0B"/>
<path d="M32.9112 5.25086C31.9301 7.17623 30.503 8.45982 29.8787 8.18476C29.1652 7.90971 29.4328 6.07602 30.4139 4.15065C31.3949 2.22528 32.822 0.941694 33.4463 1.21675C34.0706 1.4918 33.8031 3.41717 32.9112 5.25086Z" fill="#EB5D2F"/>
<path d="M17.3921 30.9224C11.7731 29.6388 9.63257 27.8968 9.63257 27.8968L9.90014 27.4384C9.90014 27.4384 8.65148 26.7966 8.29472 27.1634C7.93796 27.6218 5.35144 32.6644 8.47309 36.7902C9.98933 38.7156 12.3083 39.8158 14.8056 39.7241C14.8056 39.7241 13.7353 36.9736 14.3596 35.0482C15.1624 33.3979 16.1434 32.1143 17.3921 30.9224Z" fill="black"/>
<path d="M15.8758 31.2892C14.8947 32.2977 14.2704 33.5813 14.0028 34.8648C13.6461 36.4235 13.7353 37.9821 14.4488 39.3574C14.4488 39.3574 9.9001 38.6239 8.1163 34.7732C7.1352 32.3894 7.31358 29.7305 8.56225 27.4384C9.27577 27.9885 9.98929 28.4469 10.792 28.9054C12.665 30.0056 15.8758 31.2892 15.8758 31.2892Z" fill="#FCDEBA"/>
<path d="M32.5544 21.1123L60.5601 24.7797L32.376 22.946L32.5544 21.1123Z" fill="black"/>
<path d="M33.9814 26.2466L56.1006 29.7306L33.9814 28.2636V26.2466Z" fill="black"/>
<path d="M35.9436 31.2892L64.8412 35.2316L35.676 33.1229L35.9436 31.2892Z" fill="black"/>
<path d="M45.6654 49.6261C45.5762 49.5344 45.3978 49.4427 45.3086 49.4427H44.5059V50.5429H45.3086C45.487 50.5429 45.5762 50.4512 45.6654 50.3595C45.933 50.1762 45.933 49.8094 45.6654 49.6261Z" fill="#EA5D2C"/>
<path d="M25.33 33.2145C25.33 33.2145 26.0435 23.8627 23.1002 24.5045C20.3353 25.1463 22.5651 32.4811 22.5651 32.4811C22.2975 31.8393 19.4434 25.238 22.8327 23.7711C26.8462 23.2209 25.33 33.2145 25.33 33.2145Z" fill="black"/>
<path d="M25.9543 34.4064C24.1705 34.7732 22.2975 35.1399 20.4245 35.2316C18.7299 36.0568 17.838 37.5237 16.6785 36.7902C15.1623 35.8734 16.3218 33.8563 17.5704 33.2146C18.1056 32.9395 18.8191 32.6644 19.4434 32.4811C19.4434 32.4811 16.1434 32.8478 15.4299 35.0482C15.0731 35.9651 15.6082 37.0653 16.5001 37.432C17.392 37.7071 18.3731 37.432 18.9975 36.6986C19.5326 36.2401 20.1569 35.8734 20.8705 35.5983C22.7435 35.5067 24.4381 35.0482 25.9543 34.4064Z" fill="black"/>
<path d="M45.1302 46.9672C42.9897 46.9672 41.295 48.5258 41.295 50.6345C41.295 52.6516 42.9897 54.3019 45.1302 54.3019C47.36 54.3019 48.9654 52.7433 48.9654 50.6345C49.0546 48.6175 47.2708 46.9672 45.1302 46.9672ZM45.7546 52.2849L45.041 51.093H44.5059V52.2849H43.7032V48.8925H45.3978C45.7546 48.8925 46.0221 48.9842 46.2897 49.2593C46.4681 49.5343 46.6465 49.7177 46.6465 49.9928C46.6465 50.2678 46.5573 50.5429 46.4681 50.6345C46.2897 50.8179 46.1113 50.9096 45.9329 51.0013L46.7356 52.2849H45.7546Z" fill="#EB5C2C"/>
</svg>
