<svg width="602" height="182" viewBox="0 0 602 182" fill="none" xmlns="http://www.w3.org/2000/svg">
<path fill-rule="evenodd" clip-rule="evenodd" d="M277 31H44C39.5817 31 36 34.5817 36 39V96C36 100.418 39.5817 104 44 104H277C281.418 104 285 100.418 285 96V39C285 34.5817 281.418 31 277 31ZM48 92V43H273V92H48Z" fill="#1FA464"/>
<path fill-rule="evenodd" clip-rule="evenodd" d="M586 0H16C7.16344 0 0 7.16344 0 16V166C0 174.837 7.16344 182 16 182H586C594.837 182 602 174.837 602 166V16C602 7.16345 594.837 0 586 0ZM16 12H586C588.209 12 590 13.7909 590 16V166C590 168.209 588.209 170 586 170H16C13.7909 170 12 168.209 12 166V16C12 13.7909 13.7909 12 16 12Z" fill="#1FA464"/>
</svg>
